<?xml version="1.0" standalone="no"?>
<!DOCTYPE svg PUBLIC "-//W3C//DTD SVG 20010904//EN"
 "http://www.w3.org/TR/2001/REC-SVG-20010904/DTD/svg10.dtd">
<svg version="1.0" xmlns="http://www.w3.org/2000/svg"
 width="3000.000000pt" height="3000.000000pt" viewBox="0 0 3000.000000 3000.000000"
 preserveAspectRatio="xMidYMid meet">

<g transform="translate(0.000000,3000.000000) scale(0.100000,-0.100000)"
fill="#000000" stroke="none">
<path d="M15374 20946 c-96 -73 -349 -241 -457 -305 -121 -70 -222 -121 -417
-206 -91 -40 -229 -102 -308 -139 -168 -78 -382 -151 -685 -236 -121 -33 -296
-88 -390 -121 -95 -33 -219 -71 -277 -84 -241 -54 -791 -114 -1244 -135 -115
-5 -247 -15 -294 -22 l-84 -11 169 -59 c320 -112 654 -201 933 -247 144 -24
374 -51 439 -51 52 0 145 26 182 52 38 25 248 106 297 114 23 4 40 10 37 13
-2 4 25 17 59 28 l64 20 20 -46 c12 -25 26 -64 33 -86 12 -43 25 -62 34 -53 7
7 -53 224 -88 322 -17 46 -21 68 -14 71 7 2 55 15 107 30 52 14 142 46 200 70
57 25 107 41 110 37 4 -4 14 -34 24 -67 26 -88 108 -307 112 -302 2 2 -3 24
-11 48 -21 58 -35 120 -26 114 4 -2 30 7 58 21 56 26 181 59 290 74 179 26
165 21 259 100 190 159 415 392 596 620 117 147 361 493 345 489 -1 0 -34 -24
-73 -53z"/>
<path d="M20150 18113 c-138 -15 -317 -63 -383 -103 -17 -11 -41 -24 -53 -29
-36 -16 -101 -99 -109 -137 -21 -115 106 -176 475 -228 96 -13 216 -28 265
-31 50 -4 99 -9 110 -12 48 -9 401 -14 414 -5 12 9 37 118 56 246 l7 49 -60
57 c-128 122 -321 190 -552 194 -74 2 -151 1 -170 -1z"/>
<path d="M7363 16639 c3 -10 23 -82 44 -160 33 -124 53 -175 149 -369 427
-865 934 -1703 1332 -2200 36 -46 127 -146 203 -224 l139 -141 -51 125 c-67
163 -242 572 -312 727 -30 67 -84 166 -119 220 -186 283 -637 1050 -730 1243
-78 161 -123 217 -479 601 -187 202 -184 199 -176 178z"/>
<path d="M12328 13943 c-28 -7 -48 -94 -48 -204 0 -221 53 -515 388 -2164 127
-621 220 -1131 311 -1700 78 -489 91 -573 130 -840 162 -1096 257 -1552 326
-1569 55 -14 437 -47 608 -53 l187 -6 1 29 c1 16 1 35 0 42 -1 6 5 12 12 12 8
0 17 6 19 13 10 32 -2 194 -28 372 -10 69 -71 397 -89 475 -2 8 -19 92 -39
185 -19 94 -40 193 -46 220 -7 28 -14 61 -16 75 -3 14 -32 151 -66 305 -33
154 -64 298 -69 320 -47 228 -167 778 -209 960 -35 150 -84 366 -91 400 -42
209 -267 1055 -324 1220 -7 22 -36 110 -63 195 -266 819 -625 1564 -818 1695
-37 25 -44 27 -76 18z"/>
</g>
</svg>
